<?xml version="1.0" encoding="UTF-8"?><svg xmlns="http://www.w3.org/2000/svg" viewBox="0 0 911.69 1020.47"><g id="Layer_1"><path d="M685.28,187.76c-23.79,0-60.43,9.43-72.35,12.69-1.72.47-3.28-1.1-2.82-2.81,3.2-11.89,12.45-48.27,12.45-71.94C622.56,56.28,554.55,0,488.52,0c-66.03,0-134.04,56.28-134.04,125.7,0,116.8,237.74,301.23,237.74,377.54,0,56.45-49.73,102.21-103.42,102.21-53.69,0-103.42-45.76-103.42-102.21,0-25.84,15.98-79.92,21.89-99.02.8-2.6-1.82-4.94-4.3-3.82-15.81,7.13-58.19,24.3-99.88,24.3-62.67,0-102.21-49.73-102.21-103.42,0-53.69,32.23-105.49,88.68-105.49,11.81,0,32.17,4.47,49.99,20.45,26.65,31.66,31.68-16.16,24.26-24.26-23.07-25.18-63.09-24.73-74.4-24.73-69.42,0-125.7,54.06-125.7,134.04,0,86.39,56.28,134.04,125.7,134.04,24.07,0,62.69-7.55,74.63-10,1.67-.34,3.1,1.18,2.66,2.83-3.01,11.32-11.93,46.77-11.93,68.78,0,69.42,68.01,125.7,134.04,125.7,66.03,0,134.04-56.28,134.04-125.7,0-109.86-237.74-267.29-237.74-377.54,0-56.45,49.73-102.21,103.42-102.21,53.69,0,103.42,45.76,103.42,102.21,0,40.5-15.92,81.86-23.17,98.6-1.14,2.64,1.55,5.3,4.18,4.13,16.69-7.43,57.99-23.74,98.64-23.74,62.67,0,102.21,49.73,102.21,103.42,0,53.69-32.23,105.49-88.68,105.49-8.64,0-25.6-3.15-36.55-9.69-4.02-2.4-3.39-5.26-6.71-8.58-7.76-7.76-44.19,8.2-36.78,16.29,23.07,25.18,68.88,30.52,80.19,30.52,69.42,0,125.7-54.06,125.7-134.04,0-86.39-56.28-134.04-125.7-134.04Z"/></g><g id="Layer_3"><path d="M49.32,925.1c2.4,11.75-22.83,14.26-25.61,6.86l-4.78-129.9-17.37-5.85c-4.48-21.3,5.39-21.19,20.61-19.71,11.6,1.13,16.45,4.62,26,7.72,9.02,2.92,56.28,1.8,67.89,1.03,13.94-.93,25.16-6.65,39.24-1.13,12.54,4.91,5.94,17.86,4.98,29.35-2.04,24.67-3.47,57.36-6.25,81.94.44,2.57,10.02,3.04,12.54,9.01,2.72,6.43-.38,20.28-8.22,20.69H49.32ZM131.2,809.84H47.94c-1.21,8.03,1.17,16.38,1.38,23.86.44,16.31-1.78,44.76-.12,60.25.23,2.11.16,3.73,2.05,5h78.63l1.32-89.11Z"/><path d="M240.87,872.87c-1.81,40.12,2.4,80.07.06,119.9-.37,6.37-1.23,20.11-5.96,23.9-4.66,3.73-19.34,7.15-21.59-14.28l-.29-256.83c-1.52,4.35-26.01-8.43-26.33-15.22s6.33-15.41,12.47-15.44c6.81-.04,36.27,14.08,40.34,19.69,4.58,6.31,1.32,8.22,1.25,14.46-.42,36,.35,62.95-.04,98.94,15.11-.17,48.64-12.82,64.55,6.39,4.29,5.19,6.61,18.48.97,18.48h-65.41Z"/><path d="M771.79,780.27c-20.43.7-41.07-.95-61.49-.06-5.99.26-11.68,3.28-17.81,2.38-5.41-.79-19.79-7.92-22.51-13.12-4.24-8.12-.74-18.36,8.66-18.33,9.52.04,21.98,2.8,31.66,3.08,15.45.45,32.25.5,47.68,0,8.57-.28,23.85-4.11,31.56-2.88,6.08.97,19.71,12.1,19.25,19.39-.16,2.46-10.52,20.24-12.66,23.89-20.66,35.32-48.99,59.54-84.23,75.75-12,5.52-33.63,15.26-46.18,12.46-5.85-1.31-15.6-12.13-10.25-17.83,2.45-2.61,33.88-14.43,40.57-17.82,23.93-12.13,49.31-29.58,66.46-51.76,1.15-1.48,10.21-14.3,9.28-15.17Z"/><path d="M447.89,791.49c17.43,5.22,63.66,25.28,65.98,47.27.71,6.74-.83,11.12-6.08,14.82-12.2,8.62-18.23-5.05-27.58-12.74-13.72-11.28-28.61-21.46-44.94-27.53-3.01.18-11.56,14.03-14.45,17.35-13.73,15.77-52.78,50.08-72.71,49.39-7.87-.27-23.26-11.61-15.11-19.63,3.92-3.86,18.21-10.11,24.12-14.12,21.16-14.39,44.33-35.11,58.03-58.1,2.49-4.17,9.39-16.21,8.97-20.59-.79-8.19-25.88-17.68-8.41-29.53,8.93-6.06,20.73,4.66,28.08,10.81,20.95,17.54,10.48,18.59,4.11,42.59Z"/><path d="M562.55,761.02l.99,112.49,18.24,5.41c4.87-2.81,6.19-6.12,7.34-13.99,5.47-37.39-1.04-81.9,1.43-120.12-1.36-7.92-34.74-23.33-41.82-23.49-6.61-.15-13.22,9.33-12.37,16.13.9,7.17,23.95,12.61,26.19,23.58Z"/><path d="M598.15,991.83c-15.13-7.35-18.95-1.12-33.13.06-32.06,2.67-67.05,2.18-99.1.04-6.19-.41-11.77,1.89-16.5-2.19v-28.27h132.8c1.54,0,4.9-6.45,5.37-8.59,2.89-13.14-1.6-16.56-12.49-19.1l7.61-43.75c-2.09-3.94-5.51-6.07-9.22-7.46l-19.07-3.5c-2.02,2.39-17.32,3.96-21.03,4.19-31.38,1.98-66.09-.28-97.9-1.46-10.23-.38-26.66-9-27.11,9.44-.24,9.72,16.16,18.23,23.86,18.92,1.86.17,2.97-.88,3.31-.87,39.34,1.35,76.27-1,115.62,0l-3.4,26.18c-28.38.92-56.15,3.09-84.52,1.42-12.82-.75-26.05-4.97-38.28-5.84-14.91-1.06-19.62.65-17.18,18.85l15.04,6.68c2.79,27.19-10.48,59.91,24.57,62.92,46.44-2.45,87.41,3.07,133.56,0,3.87-.26,12.16-.99,15.53-1.81,9.06-2.21,12.79-20.48,1.68-25.88Z"/><path d="M904.84,991.83c-15.13-7.35-18.95-1.12-33.13.06-32.06,2.67-64.4,2.18-96.45.04-6.19-.41-14.42,1.89-19.15-2.19v-28.27h132.8c1.54,0,4.9-6.45,5.37-8.59,2.89-13.14-1.6-16.56-12.49-19.1l7.61-43.75c-2.09-3.94-5.51-6.07-9.22-7.46l-19.07-3.5c-2.02,2.39-17.32,3.96-21.03,4.19-31.38,1.98-66.09-.28-97.9-1.46-10.23-.38-26.66-9-27.11,9.44-.24,9.72,16.16,18.23,23.86,18.92,1.86.17,2.97-.88,3.31-.87,39.34,1.35,76.27-1,115.62,0l-3.4,26.18c-28.38.92-56.15,3.09-84.52,1.42-12.82-.75-26.05-4.97-38.28-5.84-14.91-1.06-19.62.65-17.18,18.85l15.04,6.68c2.79,27.19-10.48,59.91,24.57,62.92,46.44-2.45,87.41,3.07,133.56,0,3.87-.26,12.16-.99,15.53-1.81,9.06-2.21,12.79-20.48,1.68-25.88Z"/><path d="M870.15,761.02l.99,112.49,18.24,5.41c4.87-2.81,6.19-6.12,7.34-13.99,5.47-37.39-1.04-81.9,1.43-120.12-1.36-7.92-34.74-23.33-41.82-23.49-6.61-.15-13.22,9.33-12.37,16.13.9,7.17,23.95,12.61,26.19,23.58Z"/></g></svg>